# xmcd CD database file
#
# Track frame offsets:
#	150
#	26640
#	53067
#	88700
#	122409
#	143966
#	180344
#	189948
#	209947
#
# Disc length: 3322 seconds
#
# Revision: 0
# Processed by: cddbd v1.5.1PL0 Copyright (c) Steve Scherf et al.
# Submitted via: CDex 1.51
#
DISCID=7a0cf809
DTITLE=Kitaro - World Of Kita[Vol08][Divine Spirits]
DYEAR=2000
DGENRE=New Age
TTITLE0=God Of Thunder
TTITLE1=In The Beginning
TTITLE2=Mandala
TTITLE3=The Light Of The Spirit
TTITLE4=Spirit Of Water
TTITLE5=Strenght
TTITLE6=The Escape
TTITLE7=Lord Of Wind
TTITLE8=Reimei
EXTD=YEAR: 2000
EXTT0=
EXTT1=
EXTT2=
EXTT3=
EXTT4=
EXTT5=
EXTT6=
EXTT7=
EXTT8=
PLAYORDER=
